<svg xmlns="http://www.w3.org/2000/svg" xmlns:xlink="http://www.w3.org/1999/xlink" width="500" zoomAndPan="magnify" viewBox="0 0 375 374.999991" height="500" preserveAspectRatio="xMidYMid meet" version="1.0"><path fill="#3498db" d="M 220.746094 249.980469 C 190.015625 285.574219 196.054688 304.25 199.125 309.710938 L 212.867188 346.253906 L 130.183594 346.253906 C 126.769531 325.785156 108.246094 316.691406 107.476562 316.328125 C 97.160156 311.167969 78.054688 312.535156 50.679688 320.402344 C 49.324219 320.664062 45.058594 320.949219 43.484375 319.28125 C 42.074219 317.796875 41.449219 313.171875 43.851562 304.660156 C 45.660156 300.09375 46.597656 291.566406 40.355469 284.753906 C 43.15625 283.039062 44.695312 279.777344 44.1875 276.453125 C 43.621094 272.753906 40.613281 269.902344 36.898438 269.5 C 36.476562 269.453125 36.003906 269.375 35.535156 269.269531 C 35.539062 269.253906 35.550781 269.234375 35.558594 269.226562 C 36.808594 266.777344 38.53125 263.429688 37.910156 258.828125 C 37.125 253.011719 32.894531 248.265625 27.132812 246.742188 C 22.003906 245.382812 19.09375 243.855469 17.726562 242.878906 C 18.089844 242.476562 18.621094 241.953125 19.386719 241.320312 C 32.667969 230.339844 40.320312 216.789062 43.703125 209.691406 C 45.644531 205.617188 46.390625 201.078125 45.871094 196.574219 C 44.398438 183.8125 50.234375 162.003906 66.535156 144.285156 C 78.644531 131.113281 101 115.613281 138.644531 116.863281 C 143.214844 117.089844 147.003906 113.433594 147.144531 108.871094 C 147.292969 104.316406 143.71875 100.507812 139.164062 100.359375 C 95.246094 98.984375 68.832031 117.398438 54.394531 133.105469 C 34.480469 154.761719 27.535156 181.535156 29.492188 198.464844 C 29.65625 199.886719 29.421875 201.3125 28.8125 202.589844 C 26.023438 208.460938 19.722656 219.640625 8.886719 228.589844 C 0.609375 235.433594 -0.015625 241.941406 0.917969 246.191406 C 2.46875 253.269531 9.121094 258.601562 20.691406 262.058594 C 19.96875 263.488281 19.042969 265.378906 18.328125 267.800781 C 17.246094 271.484375 17.796875 275.207031 19.878906 278.292969 C 20.410156 279.082031 21.027344 279.789062 21.691406 280.429688 C 21.347656 281.371094 21.109375 282.378906 21.015625 283.449219 C 20.78125 286.089844 21.292969 291.121094 27.34375 295.15625 C 28.039062 295.617188 29.332031 296.484375 28.574219 298.492188 C 28.410156 298.847656 28.273438 299.222656 28.164062 299.597656 C 24.113281 313.535156 25.242188 323.972656 31.527344 330.609375 C 39.945312 339.507812 53.113281 336.765625 54.582031 336.421875 C 54.722656 336.386719 54.863281 336.351562 55.003906 336.308594 C 88.578125 326.628906 98.484375 330.238281 100.207031 331.101562 C 100.8125 331.398438 114.957031 338.59375 114.230469 354.09375 C 114.125 356.347656 114.945312 358.546875 116.5 360.179688 C 118.058594 361.8125 120.214844 362.738281 122.46875 362.738281 L 224.808594 362.738281 C 227.515625 362.738281 230.046875 361.410156 231.585938 359.183594 C 233.125 356.953125 233.476562 354.117188 232.523438 351.585938 L 214.316406 303.164062 C 213.960938 302.207031 214.066406 302.097656 213.527344 301.5 C 212.890625 299.570312 210.269531 287.375 233.253906 260.75 C 236.234375 257.300781 235.851562 252.09375 232.40625 249.113281 C 228.9375 246.152344 223.730469 246.523438 220.746094 249.980469 Z M 220.746094 249.980469 " fill-opacity="1" fill-rule="nonzero"/><path fill="#3498db" d="M 359.988281 102.5625 C 357.039062 102.5625 354.308594 103.445312 351.992188 104.914062 L 334.667969 87.578125 L 310.933594 87.578125 C 309.652344 84.609375 306.710938 82.53125 303.277344 82.53125 C 298.671875 82.53125 294.933594 86.265625 294.933594 90.878906 C 294.933594 95.484375 298.667969 99.226562 303.277344 99.226562 C 306.710938 99.226562 309.652344 97.148438 310.933594 94.179688 L 331.9375 94.179688 L 347.328125 109.582031 C 346.425781 111.007812 345.75 112.589844 345.367188 114.285156 L 279.238281 114.285156 L 212.632812 142.808594 C 212.28125 142.710938 211.972656 142.574219 211.613281 142.488281 C 207.78125 137.835938 203.296875 134.753906 198.476562 132.921875 L 209.566406 119.050781 L 214.347656 97.523438 L 254.414062 97.523438 L 269.492188 84.949219 C 270.621094 85.523438 271.882812 85.875 273.234375 85.875 C 277.839844 85.875 281.578125 82.140625 281.578125 77.527344 C 281.578125 72.914062 277.84375 69.179688 273.234375 69.179688 C 268.632812 69.179688 264.894531 72.914062 264.894531 77.527344 C 264.894531 78.347656 265.042969 79.125 265.265625 79.875 L 252.023438 90.917969 L 215.808594 90.917969 L 216.136719 89.449219 L 254.320312 60.796875 L 325.484375 60.796875 C 326.917969 65.632812 331.332031 69.179688 336.628906 69.179688 C 343.074219 69.179688 348.304688 63.949219 348.304688 57.496094 C 348.304688 51.046875 343.074219 45.8125 336.628906 45.8125 C 331.332031 45.8125 326.910156 49.359375 325.484375 54.195312 L 252.121094 54.195312 L 210.226562 85.632812 L 203.460938 116.125 L 191.441406 131.148438 C 187.628906 130.601562 183.726562 130.65625 179.871094 131.214844 L 199.347656 72.757812 L 247.78125 30.757812 L 268.765625 30.757812 C 270.199219 35.59375 274.617188 39.140625 279.910156 39.140625 C 286.355469 39.140625 291.585938 33.90625 291.585938 27.457031 C 291.585938 21.007812 286.355469 15.773438 279.910156 15.773438 C 274.617188 15.773438 270.191406 19.320312 268.765625 24.15625 L 245.316406 24.15625 L 193.660156 68.953125 L 172.347656 132.894531 C 170.710938 133.390625 169.09375 133.953125 167.527344 134.589844 L 167.527344 69.882812 L 211.410156 34.574219 C 212.960938 35.335938 214.675781 35.796875 216.515625 35.796875 C 222.964844 35.796875 228.195312 30.566406 228.195312 24.117188 C 228.195312 17.664062 222.964844 12.433594 216.515625 12.433594 C 210.070312 12.433594 204.839844 17.664062 204.839844 24.117188 C 204.839844 25.070312 204.988281 25.984375 205.203125 26.867188 L 157.632812 65.140625 L 157.632812 133.601562 C 143.5 131.8125 131.683594 137.859375 124.117188 145.660156 C 120.132812 145.824219 114.769531 146.777344 110.617188 150.191406 C 107.53125 152.726562 105.5625 156.230469 104.867188 160.328125 C 96.457031 164.050781 91.671875 170.710938 91.808594 178.824219 C 91.671875 181.875 92.117188 185.066406 93.125 188.308594 C 93.242188 188.6875 93.335938 189.25 93.101562 189.792969 C 89.773438 197.5625 89.632812 204.867188 92.691406 210.929688 C 95.828125 217.136719 101.910156 221.339844 110.773438 223.417969 C 112.097656 223.726562 113.296875 223.90625 114.453125 224.066406 C 115.921875 224.269531 116.441406 224.363281 117 224.632812 C 122.207031 227.1875 126.808594 224.183594 130.167969 221.980469 C 130.277344 221.90625 130.394531 221.828125 130.523438 221.75 C 131.417969 222.433594 132.363281 222.941406 133.25 223.324219 L 135.777344 225.535156 C 137.253906 226.828125 138.289062 227.964844 139.289062 229.058594 C 145.847656 236.253906 150.648438 237.453125 166.328125 235.871094 C 167.269531 235.773438 167.949219 235.75 168.351562 235.75 C 173.4375 239.835938 178.714844 241.949219 183.785156 241.949219 C 184.644531 241.949219 185.5 241.890625 186.347656 241.765625 C 189.769531 241.273438 194.578125 239.519531 198.820312 234.117188 C 200.023438 234.058594 201.890625 234.105469 203.238281 234.140625 C 210.238281 234.328125 220.839844 234.632812 228.148438 226.816406 L 228.726562 226.136719 C 230.066406 224.433594 235.765625 216.507812 234.898438 206.394531 C 237.988281 204.71875 241.320312 201.695312 243.859375 196.257812 C 246.820312 189.929688 246.253906 182.988281 242.269531 176.722656 C 242.242188 176.675781 240.972656 174.78125 239.035156 172.636719 L 243.917969 172.636719 L 271.507812 160.457031 L 302.28125 180.980469 L 318.824219 180.980469 C 320.257812 185.8125 324.675781 189.363281 329.972656 189.363281 C 336.417969 189.363281 341.648438 184.128906 341.648438 177.679688 C 341.648438 171.226562 336.417969 165.996094 329.972656 165.996094 C 324.675781 165.996094 320.253906 169.542969 318.824219 174.375 L 304.277344 174.375 L 278.664062 157.296875 L 291.074219 151.816406 C 293.214844 154.339844 296.371094 155.980469 299.941406 155.980469 C 306.386719 155.980469 311.617188 150.746094 311.617188 144.296875 C 311.617188 137.847656 306.386719 132.613281 299.941406 132.613281 C 293.496094 132.613281 288.265625 137.847656 288.265625 144.296875 C 288.265625 144.804688 288.351562 145.285156 288.417969 145.777344 L 242.527344 166.035156 L 235.601562 166.035156 C 233.683594 157.140625 228.949219 150.507812 221.347656 146.269531 L 280.605469 120.894531 L 345.378906 120.894531 C 346.890625 127.597656 352.851562 132.613281 360.003906 132.613281 C 368.296875 132.613281 375.015625 125.886719 375.015625 117.59375 C 375.015625 109.300781 368.277344 102.5625 359.988281 102.5625 Z M 225.308594 183.011719 L 226.148438 183.011719 C 227.789062 184.539062 229.925781 187.078125 228.90625 189.257812 C 227.914062 191.394531 227.046875 191.914062 226.925781 191.925781 C 223.746094 192.292969 220.933594 194.0625 219.207031 196.777344 C 217.460938 199.527344 217.050781 202.871094 218.074219 205.960938 C 219.511719 210.292969 216.570312 214.78125 215.886719 215.742188 C 213.605469 217.902344 208.339844 217.757812 203.695312 217.628906 C 197.441406 217.453125 190.347656 217.253906 186.324219 223.242188 C 185.46875 224.515625 184.59375 225.324219 183.984375 225.417969 C 183.023438 225.554688 180.941406 224.75 178.410156 222.65625 C 174.996094 219.828125 171.113281 219.230469 168.09375 219.230469 C 166.738281 219.230469 165.554688 219.347656 164.667969 219.441406 C 155.5 220.367188 153.558594 219.839844 153.183594 219.664062 C 152.90625 219.5 152.082031 218.585938 151.472656 217.925781 C 150.847656 217.234375 150.085938 216.402344 149.15625 215.472656 C 148.957031 214.828125 148.691406 214.207031 148.355469 213.613281 C 146.367188 210.078125 142.9375 208.976562 140.960938 208.460938 C 139.5625 206.464844 137.632812 205.03125 135.339844 204.324219 C 129.699219 202.578125 124.757812 205.804688 121.148438 208.164062 C 121.007812 208.25 120.847656 208.355469 120.691406 208.460938 C 119.214844 208.0625 117.898438 207.875 116.742188 207.71875 C 116.058594 207.617188 115.34375 207.53125 114.554688 207.347656 C 110.761719 206.460938 108.230469 205.082031 107.421875 203.484375 C 106.667969 201.988281 106.984375 199.300781 108.265625 196.296875 C 109.992188 192.277344 110.207031 187.703125 108.878906 183.421875 C 108.433594 181.972656 108.230469 180.605469 108.289062 179.492188 L 108.3125 178.914062 L 108.292969 178.507812 C 108.207031 176.359375 112.960938 174.863281 113.511719 174.699219 C 118.175781 173.289062 121.285156 168.878906 121.082031 163.988281 C 121.054688 163.296875 121.1875 162.890625 121.089844 162.949219 C 121.472656 162.648438 123.304688 162.027344 126.28125 162.160156 C 129.613281 162.367188 132.6875 160.957031 134.800781 158.4375 C 138.117188 154.503906 147.410156 145.957031 162.0625 151.640625 C 164.84375 152.707031 167.953125 152.585938 170.605469 151.28125 C 175.273438 148.960938 191.167969 142.316406 199.644531 153.972656 C 201.214844 156.132812 203.519531 157.617188 206.105469 158.15625 C 219.207031 160.902344 219.707031 168.34375 220.03125 173.265625 L 220.0625 173.699219 C 220.226562 176.082031 221.191406 178.367188 222.847656 180.210938 Z M 225.308594 183.011719 " fill-opacity="1" fill-rule="nonzero"/></svg>