<svg xmlns="http://www.w3.org/2000/svg" xmlns:xlink="http://www.w3.org/1999/xlink" width="40" zoomAndPan="magnify" viewBox="0 0 30 30.000001" height="40" preserveAspectRatio="xMidYMid meet" version="1.0"><defs><clipPath id="9bc8d10f68"><path d="M 0.484375 7 L 19 7 L 19 28.488281 L 0.484375 28.488281 Z M 0.484375 7 " clip-rule="nonzero"/></clipPath><clipPath id="5d14f78982"><path d="M 7 0.90625 L 29.515625 0.90625 L 29.515625 19 L 7 19 Z M 7 0.90625 " clip-rule="nonzero"/></clipPath></defs><g clip-path="url(#9bc8d10f68)"><path fill="#ffffff" d="M 17.574219 19.589844 C 15.195312 22.378906 15.664062 23.84375 15.898438 24.273438 L 16.964844 27.136719 L 10.5625 27.136719 C 10.296875 25.53125 8.863281 24.820312 8.804688 24.792969 C 8.007812 24.386719 6.527344 24.492188 4.40625 25.109375 C 4.300781 25.132812 3.972656 25.152344 3.851562 25.023438 C 3.742188 24.90625 3.691406 24.542969 3.878906 23.875 C 4.019531 23.519531 4.089844 22.851562 3.609375 22.316406 C 3.824219 22.179688 3.945312 21.925781 3.90625 21.664062 C 3.859375 21.375 3.628906 21.152344 3.339844 21.121094 C 3.308594 21.117188 3.269531 21.109375 3.234375 21.101562 C 3.234375 21.101562 3.234375 21.097656 3.238281 21.097656 C 3.332031 20.90625 3.46875 20.644531 3.417969 20.28125 C 3.359375 19.828125 3.03125 19.453125 2.585938 19.335938 C 2.1875 19.230469 1.960938 19.109375 1.855469 19.03125 C 1.882812 19 1.925781 18.960938 1.984375 18.910156 C 3.011719 18.050781 3.605469 16.988281 3.867188 16.429688 C 4.015625 16.109375 4.074219 15.753906 4.035156 15.402344 C 3.921875 14.402344 4.375 12.691406 5.636719 11.300781 C 6.574219 10.269531 8.304688 9.054688 11.21875 9.152344 C 11.570312 9.167969 11.863281 8.882812 11.875 8.523438 C 11.886719 8.167969 11.609375 7.871094 11.257812 7.859375 C 7.859375 7.75 5.8125 9.195312 4.695312 10.425781 C 3.152344 12.125 2.617188 14.222656 2.765625 15.550781 C 2.78125 15.660156 2.761719 15.773438 2.714844 15.875 C 2.5 16.332031 2.011719 17.210938 1.171875 17.914062 C 0.53125 18.449219 0.484375 18.960938 0.554688 19.292969 C 0.675781 19.847656 1.191406 20.265625 2.085938 20.535156 C 2.03125 20.648438 1.957031 20.796875 1.902344 20.988281 C 1.820312 21.277344 1.863281 21.566406 2.023438 21.808594 C 2.0625 21.871094 2.113281 21.925781 2.164062 21.976562 C 2.136719 22.050781 2.117188 22.128906 2.109375 22.214844 C 2.09375 22.421875 2.132812 22.816406 2.601562 23.132812 C 2.65625 23.167969 2.753906 23.234375 2.695312 23.394531 C 2.683594 23.421875 2.671875 23.449219 2.664062 23.480469 C 2.351562 24.574219 2.4375 25.390625 2.925781 25.910156 C 3.578125 26.609375 4.597656 26.394531 4.710938 26.367188 C 4.71875 26.363281 4.730469 26.363281 4.742188 26.359375 C 7.339844 25.597656 8.109375 25.882812 8.242188 25.949219 C 8.289062 25.972656 9.382812 26.539062 9.328125 27.753906 C 9.320312 27.929688 9.382812 28.101562 9.503906 28.230469 C 9.625 28.359375 9.789062 28.429688 9.964844 28.429688 L 17.886719 28.429688 C 18.097656 28.429688 18.292969 28.328125 18.414062 28.152344 C 18.53125 27.976562 18.558594 27.753906 18.484375 27.554688 L 17.078125 23.757812 C 17.046875 23.683594 17.058594 23.675781 17.015625 23.628906 C 16.964844 23.476562 16.761719 22.519531 18.542969 20.433594 C 18.773438 20.164062 18.742188 19.753906 18.476562 19.519531 C 18.207031 19.289062 17.804688 19.320312 17.574219 19.589844 Z M 17.574219 19.589844 " fill-opacity="1" fill-rule="nonzero"/></g><g clip-path="url(#5d14f78982)"><path fill="#ffffff" d="M 28.355469 8.03125 C 28.125 8.03125 27.914062 8.097656 27.734375 8.214844 L 26.394531 6.855469 L 24.554688 6.855469 C 24.457031 6.621094 24.230469 6.460938 23.964844 6.460938 C 23.605469 6.460938 23.316406 6.753906 23.316406 7.113281 C 23.316406 7.476562 23.605469 7.769531 23.964844 7.769531 C 24.230469 7.769531 24.457031 7.605469 24.554688 7.371094 L 26.183594 7.371094 L 27.375 8.582031 C 27.304688 8.691406 27.25 8.816406 27.222656 8.949219 L 22.101562 8.949219 L 16.945312 11.1875 C 16.917969 11.179688 16.894531 11.167969 16.867188 11.160156 C 16.570312 10.796875 16.222656 10.554688 15.851562 10.410156 L 16.707031 9.324219 L 17.078125 7.636719 L 20.179688 7.636719 L 21.347656 6.648438 C 21.433594 6.695312 21.53125 6.722656 21.636719 6.722656 C 21.992188 6.722656 22.285156 6.429688 22.285156 6.066406 C 22.285156 5.707031 21.996094 5.414062 21.636719 5.414062 C 21.28125 5.414062 20.992188 5.707031 20.992188 6.066406 C 20.992188 6.132812 21.003906 6.191406 21.019531 6.25 L 19.996094 7.117188 L 17.191406 7.117188 L 17.21875 7.003906 L 20.171875 4.753906 L 25.683594 4.753906 C 25.792969 5.132812 26.136719 5.414062 26.546875 5.414062 C 27.042969 5.414062 27.449219 5.003906 27.449219 4.496094 C 27.449219 3.992188 27.042969 3.582031 26.546875 3.582031 C 26.136719 3.582031 25.792969 3.859375 25.683594 4.238281 L 20.003906 4.238281 L 16.757812 6.703125 L 16.234375 9.09375 L 15.304688 10.273438 C 15.011719 10.230469 14.707031 10.234375 14.410156 10.277344 L 15.917969 5.691406 L 19.667969 2.398438 L 21.292969 2.398438 C 21.402344 2.78125 21.746094 3.058594 22.15625 3.058594 C 22.652344 3.058594 23.058594 2.648438 23.058594 2.140625 C 23.058594 1.636719 22.652344 1.226562 22.15625 1.226562 C 21.746094 1.226562 21.402344 1.503906 21.292969 1.882812 L 19.476562 1.882812 L 15.476562 5.394531 L 13.828125 10.410156 C 13.699219 10.449219 13.574219 10.492188 13.453125 10.542969 L 13.453125 5.46875 L 16.851562 2.699219 C 16.972656 2.757812 17.105469 2.796875 17.246094 2.796875 C 17.746094 2.796875 18.152344 2.386719 18.152344 1.878906 C 18.152344 1.375 17.746094 0.964844 17.246094 0.964844 C 16.746094 0.964844 16.34375 1.375 16.34375 1.878906 C 16.34375 1.953125 16.355469 2.027344 16.371094 2.09375 L 12.6875 5.097656 L 12.6875 10.464844 C 11.59375 10.324219 10.679688 10.796875 10.09375 11.410156 C 9.785156 11.421875 9.371094 11.496094 9.046875 11.765625 C 8.808594 11.964844 8.65625 12.238281 8.601562 12.558594 C 7.953125 12.851562 7.582031 13.375 7.589844 14.011719 C 7.582031 14.25 7.617188 14.5 7.695312 14.753906 C 7.703125 14.785156 7.710938 14.828125 7.691406 14.871094 C 7.433594 15.480469 7.421875 16.050781 7.660156 16.527344 C 7.902344 17.015625 8.375 17.34375 9.058594 17.507812 C 9.164062 17.53125 9.253906 17.546875 9.34375 17.558594 C 9.457031 17.574219 9.5 17.582031 9.542969 17.601562 C 9.945312 17.800781 10.300781 17.566406 10.5625 17.394531 C 10.570312 17.386719 10.578125 17.382812 10.589844 17.375 C 10.660156 17.429688 10.730469 17.46875 10.800781 17.5 L 10.996094 17.671875 C 11.109375 17.773438 11.191406 17.863281 11.265625 17.949219 C 11.773438 18.511719 12.148438 18.605469 13.359375 18.484375 C 13.433594 18.476562 13.488281 18.472656 13.519531 18.472656 C 13.910156 18.792969 14.320312 18.960938 14.710938 18.960938 C 14.777344 18.960938 14.84375 18.953125 14.910156 18.945312 C 15.175781 18.90625 15.546875 18.769531 15.875 18.34375 C 15.96875 18.339844 16.113281 18.34375 16.21875 18.347656 C 16.761719 18.363281 17.582031 18.386719 18.148438 17.773438 L 18.191406 17.71875 C 18.296875 17.585938 18.738281 16.964844 18.667969 16.171875 C 18.910156 16.039062 19.167969 15.804688 19.363281 15.375 C 19.59375 14.878906 19.546875 14.335938 19.242188 13.84375 C 19.238281 13.839844 19.140625 13.691406 18.988281 13.523438 L 19.367188 13.523438 L 21.503906 12.570312 L 23.886719 14.179688 L 25.167969 14.179688 C 25.277344 14.558594 25.621094 14.835938 26.03125 14.835938 C 26.527344 14.835938 26.933594 14.425781 26.933594 13.921875 C 26.933594 13.414062 26.527344 13.003906 26.03125 13.003906 C 25.621094 13.003906 25.277344 13.28125 25.167969 13.660156 L 24.039062 13.660156 L 22.058594 12.320312 L 23.019531 11.890625 C 23.183594 12.089844 23.429688 12.21875 23.707031 12.21875 C 24.203125 12.21875 24.609375 11.808594 24.609375 11.300781 C 24.609375 10.796875 24.203125 10.386719 23.707031 10.386719 C 23.207031 10.386719 22.800781 10.796875 22.800781 11.300781 C 22.800781 11.34375 22.808594 11.378906 22.8125 11.417969 L 19.261719 13.007812 L 18.722656 13.007812 C 18.574219 12.308594 18.207031 11.789062 17.621094 11.457031 L 22.207031 9.46875 L 27.222656 9.46875 C 27.339844 9.992188 27.800781 10.386719 28.355469 10.386719 C 28.996094 10.386719 29.515625 9.859375 29.515625 9.207031 C 29.515625 8.558594 28.996094 8.03125 28.355469 8.03125 Z M 17.925781 14.339844 L 17.992188 14.339844 C 18.121094 14.457031 18.285156 14.65625 18.207031 14.828125 C 18.128906 14.996094 18.0625 15.035156 18.050781 15.039062 C 17.804688 15.066406 17.589844 15.203125 17.453125 15.417969 C 17.320312 15.632812 17.289062 15.894531 17.367188 16.136719 C 17.476562 16.476562 17.25 16.828125 17.199219 16.90625 C 17.019531 17.074219 16.613281 17.0625 16.253906 17.050781 C 15.769531 17.039062 15.21875 17.023438 14.910156 17.492188 C 14.84375 17.59375 14.773438 17.65625 14.726562 17.664062 C 14.652344 17.675781 14.492188 17.609375 14.296875 17.445312 C 14.03125 17.226562 13.730469 17.179688 13.496094 17.179688 C 13.394531 17.179688 13.300781 17.1875 13.230469 17.195312 C 12.523438 17.265625 12.371094 17.226562 12.34375 17.210938 C 12.320312 17.199219 12.257812 17.128906 12.210938 17.074219 C 12.164062 17.023438 12.105469 16.957031 12.03125 16.882812 C 12.015625 16.832031 11.996094 16.785156 11.96875 16.738281 C 11.816406 16.460938 11.550781 16.375 11.398438 16.332031 C 11.289062 16.175781 11.140625 16.066406 10.960938 16.007812 C 10.523438 15.871094 10.140625 16.125 9.863281 16.308594 C 9.851562 16.316406 9.839844 16.324219 9.828125 16.332031 C 9.714844 16.300781 9.613281 16.289062 9.523438 16.277344 C 9.46875 16.269531 9.414062 16.261719 9.351562 16.246094 C 9.058594 16.175781 8.863281 16.070312 8.800781 15.945312 C 8.742188 15.824219 8.765625 15.617188 8.867188 15.378906 C 9 15.066406 9.015625 14.707031 8.914062 14.371094 C 8.878906 14.257812 8.863281 14.148438 8.867188 14.0625 L 8.871094 14.015625 L 8.867188 13.984375 C 8.859375 13.816406 9.230469 13.699219 9.273438 13.6875 C 9.632812 13.574219 9.875 13.230469 9.859375 12.847656 C 9.855469 12.792969 9.867188 12.761719 9.859375 12.765625 C 9.886719 12.742188 10.03125 12.691406 10.261719 12.703125 C 10.519531 12.71875 10.757812 12.609375 10.921875 12.410156 C 11.175781 12.101562 11.894531 11.433594 13.03125 11.878906 C 13.246094 11.960938 13.488281 11.953125 13.691406 11.851562 C 14.054688 11.667969 15.285156 11.148438 15.941406 12.0625 C 16.0625 12.230469 16.238281 12.347656 16.441406 12.390625 C 17.453125 12.605469 17.492188 13.1875 17.519531 13.574219 L 17.519531 13.609375 C 17.535156 13.792969 17.609375 13.972656 17.738281 14.117188 Z M 17.925781 14.339844 " fill-opacity="1" fill-rule="nonzero"/></g></svg>